HIERARCHY
ROOT hip
{
  OFFSET 0 0 0
  CHANNELS 6 Xposition Yposition Zposition Zrotation Yrotation Xrotation
  JOINT abdomen
  {
    OFFSET 0 20.6881 -0.73152
    CHANNELS 3 Zrotation Xrotation Yrotation
    JOINT chest
    {
      OFFSET 0 11.7043 -0.48768
      CHANNELS 3 Zrotation Xrotation Yrotation
      JOINT neck
      {
        OFFSET 0 22.1894 -2.19456
        CHANNELS 3 Zrotation Xrotation Yrotation
        JOINT head
        {
          OFFSET -0.24384 7.07133 1.2192
          CHANNELS 3 Zrotation Xrotation Yrotation
          JOINT leftEye
          {
            OFFSET 4.14528 8.04674 8.04672
            CHANNELS 3 Zrotation Xrotation Yrotation
            End Site
            {
              OFFSET 1 0 0
            }
          }
          JOINT rightEye
          {
            OFFSET -3.6576 8.04674 8.04672
            CHANNELS 3 Zrotation Xrotation Yrotation
            End Site
            {
              OFFSET 1 0 0
            }
          }
        }
      }
      JOINT rCollar
      {
        OFFSET -2.68224 19.2634 -4.8768
        CHANNELS 3 Zrotation Xrotation Yrotation
        JOINT rShldr
        {
          OFFSET -8.77824 -1.95073 1.46304
          CHANNELS 3 Zrotation Xrotation Yrotation
          JOINT rForeArm
          {
            OFFSET -28.1742 -1.7115 0.48768
            CHANNELS 3 Zrotation Xrotation Yrotation
            JOINT rHand
            {
              OFFSET -22.5879 0.773209 7.07136
              CHANNELS 3 Zrotation Xrotation Yrotation
              JOINT rThumb1
              {
                OFFSET -1.2192 -0.487915 3.41376
                CHANNELS 3 Zrotation Xrotation Yrotation
                JOINT rThumb2
                {
                  OFFSET -3.37035 -0.52449 3.41376
                  CHANNELS 3 Zrotation Xrotation Yrotation
                  End Site
                  {
                    OFFSET -1.78271 -1.18214 1.43049
                  }
                }
              }
              JOINT rIndex1
              {
                OFFSET -7.75947 0.938293 5.60832
                CHANNELS 3 Zrotation Xrotation Yrotation
                JOINT rIndex2
                {
                  OFFSET -2.54057 -0.884171 1.56538
                  CHANNELS 3 Zrotation Xrotation Yrotation
                  End Site
                  {
                    OFFSET -1.62519 -0.234802 1.16502
                  }
                }
              }
              JOINT rMid1
              {
                OFFSET -8.24714 1.18213 3.41376
                CHANNELS 3 Zrotation Xrotation Yrotation
                JOINT rMid2
                {
                  OFFSET -3.10165 -0.590103 1.0647
                  CHANNELS 3 Zrotation Xrotation Yrotation
                  End Site
                  {
                    OFFSET -2.48547 -0.328903 0.83742
                  }
                }
              }
              JOINT rRing1
              {
                OFFSET -8.82822 0.546677 1.51678
                CHANNELS 3 Zrotation Xrotation Yrotation
                JOINT rRing2
                {
                  OFFSET -2.60934 -0.819778 -0.0198488
                  CHANNELS 3 Zrotation Xrotation Yrotation
                  End Site
                  {
                    OFFSET -2.33842 -0.294052 0.168128
                  }
                }
              }
              JOINT rPinky1
              {
                OFFSET -8.27202 -0.0477905 -0.4584
                CHANNELS 3 Zrotation Xrotation Yrotation
                JOINT rPinky2
                {
                  OFFSET -1.82734 -0.647385 -0.700984
                  CHANNELS 3 Zrotation Xrotation Yrotation
                  End Site
                  {
                    OFFSET -1.69225 -0.51767 -0.607171
                  }
                }
              }
            }
          }
        }
      }
      JOINT lCollar
      {
        OFFSET 2.68224 19.2634 -4.8768
        CHANNELS 3 Zrotation Xrotation Yrotation
        JOINT lShldr
        {
          OFFSET 8.77824 -1.95073 1.46304
          CHANNELS 3 Zrotation Xrotation Yrotation
          JOINT lForeArm
          {
            OFFSET 28.1742 -1.7115 0.48768
            CHANNELS 3 Zrotation Xrotation Yrotation
            JOINT lHand
            {
              OFFSET 22.5879 0.773209 7.07136
              CHANNELS 3 Zrotation Xrotation Yrotation
              JOINT lThumb1
              {
                OFFSET 1.2192 -0.487915 3.41376
                CHANNELS 3 Zrotation Xrotation Yrotation
                JOINT lThumb2
                {
                  OFFSET 3.37035 -0.52449 3.41376
                  CHANNELS 3 Zrotation Xrotation Yrotation
                  End Site
                  {
                    OFFSET 1.78271 -1.18214 1.43049
                  }
                }
              }
              JOINT lIndex1
              {
                OFFSET 7.75947 0.938293 5.60832
                CHANNELS 3 Zrotation Xrotation Yrotation
                JOINT lIndex2
                {
                  OFFSET 2.54057 -0.884171 1.56538
                  CHANNELS 3 Zrotation Xrotation Yrotation
                  End Site
                  {
                    OFFSET 1.62519 -0.234802 1.16502
                  }
                }
              }
              JOINT lMid1
              {
                OFFSET 8.24714 1.18213 3.41376
                CHANNELS 3 Zrotation Xrotation Yrotation
                JOINT lMid2
                {
                  OFFSET 3.10165 -0.590103 1.0647
                  CHANNELS 3 Zrotation Xrotation Yrotation
                  End Site
                  {
                    OFFSET 2.48547 -0.328903 0.83742
                  }
                }
              }
              JOINT lRing1
              {
                OFFSET 8.82822 0.546677 1.51678
                CHANNELS 3 Zrotation Xrotation Yrotation
                JOINT lRing2
                {
                  OFFSET 2.60934 -0.819778 -0.0198488
                  CHANNELS 3 Zrotation Xrotation Yrotation
                  End Site
                  {
                    OFFSET 2.33842 -0.294052 0.168128
                  }
                }
              }
              JOINT lPinky1
              {
                OFFSET 8.27202 -0.0477905 -0.4584
                CHANNELS 3 Zrotation Xrotation Yrotation
                JOINT lPinky2
                {
                  OFFSET 1.82734 -0.647385 -0.700984
                  CHANNELS 3 Zrotation Xrotation Yrotation
                  End Site
                  {
                    OFFSET 1.69225 -0.51767 -0.607171
                  }
                }
              }
            }
          }
        }
      }
    }
  }
  JOINT rButtock
  {
    OFFSET -8.77824 4.35084 1.2192
    CHANNELS 3 Zrotation Xrotation Yrotation
    JOINT rThigh
    {
      OFFSET 0 -1.70687 -2.19456
      CHANNELS 3 Zrotation Xrotation Yrotation
      JOINT rShin
      {
        OFFSET 0 -36.8199 0.73152
        CHANNELS 3 Zrotation Xrotation Yrotation
        JOINT rFoot
        {
          OFFSET 0.73152 -45.1104 -5.12064
          CHANNELS 3 Zrotation Xrotation Yrotation
          End Site
          {
            OFFSET -1.1221 -3.69964 12.103
          }
        }
      }
    }
  }
  JOINT lButtock
  {
    OFFSET 8.77824 4.35084 1.2192
    CHANNELS 3 Zrotation Xrotation Yrotation
    JOINT lThigh
    {
      OFFSET 0 -1.70687 -2.19456
      CHANNELS 3 Zrotation Xrotation Yrotation
      JOINT lShin
      {
        OFFSET 0 -36.8199 0.73152
        CHANNELS 3 Zrotation Xrotation Yrotation
        JOINT lFoot
        {
          OFFSET -0.73152 -45.1104 -5.12064
          CHANNELS 3 Zrotation Xrotation Yrotation
          End Site
          {
            OFFSET 1.1221 -3.69964 12.103
          }
        }
      }
    }
  }
}
MOTION
Frames:	9
Frame Time:	0.00833333
10.6601 79.4953 16.8574 177.678 0.8425 -171.204 -4.40874 -5.03876 -0.0237258 2.7293 5.09354 -0.0038764 0.521233 -21.2399 -1.90101 3.20124 32.0454 -1.49687 -0.0 0.0 0.0 -0.0 0.0 0.0 8.29866e-15 -2.86256e-14 9.76219e-15 82.2177 -8.10268 -6.29192 -10.4059 -4.39202 18.5645 -2.71392 41.5289 7.15007 3.9528e-10 2.07338e-10 -1.15208e-09 6.41865e-10 3.66274e-10 -2.0036e-09 3.95287e-10 2.07338e-10 -1.15208e-09 7.73091 5.47488 0.417314 3.95289e-10 2.07338e-10 -1.15207e-09 2.90554 0.965183 0.102902 3.95284e-10 2.07339e-10 -1.15208e-09 10.2786 0.731801 0.0259123 3.95281e-10 2.07337e-10 -1.15207e-09 2.22167 -0.733487 -0.20892 8.12646e-15 -2.86255e-14 9.26212e-15 -83.0294 -7.54211 -2.86946 7.73403 -2.87314 -13.6173 9.26737 62.0627 -15.3578 -8.21688e-10 -5.01733e-10 -6.43634e-10 -1.4353e-09 -8.55485e-10 -1.05605e-09 -8.21696e-10 -5.01732e-10 -6.4363e-10 -7.73091 5.47488 -0.417314 -8.21685e-10 -5.01732e-10 -6.43631e-10 -2.90554 0.965183 -0.102902 -8.21696e-10 -5.01732e-10 -6.43636e-10 -10.2786 0.731801 -0.0259123 -8.21687e-10 -5.01731e-10 -6.43649e-10 -2.22167 -0.733487 0.20892 -2.03217e-16 0.0 -3.88251e-19 3.8002 -21.1803 7.82031 -0.174135 34.9639 0.804413 -8.09286 -13.8389 -23.5724 2.03217e-16 0.0 3.88251e-19 -5.97007 -22.6158 -7.33116 0.216524 32.1902 -0.545164 3.45959 -1.59943 23.7992
10.6786 79.49 16.7998 177.668 0.828 -171.136 -4.38944 -5.05755 0.0147543 2.73739 5.09279 0.00652183 0.485432 -21.2251 -1.91628 3.19103 31.9474 -1.46596 -0.0 0.0 0.0 -0.0 0.0 0.0 -4.54541e-14 -2.28608e-14 -7.16207e-15 81.9593 -9.52266 -6.82973 -10.1693 -4.24515 18.1189 -2.91407 42.6829 7.44784 9.65805e-10 5.08907e-11 -9.46206e-10 1.63114e-09 9.65651e-11 -1.668e-09 9.65812e-10 5.08863e-11 -9.46208e-10 7.73091 5.47488 0.417314 9.65815e-10 5.0886e-11 -9.46197e-10 2.90554 0.965183 0.102902 9.65808e-10 5.08871e-11 -9.46205e-10 10.2786 0.731801 0.0259123 9.65804e-10 5.0884e-11 -9.46197e-10 2.22167 -0.733487 -0.20892 -4.55907e-14 -2.28609e-14 -7.60041e-15 -83.144 -11.3197 -2.04684 7.37383 -2.69275 -12.9597 11.3541 65.1715 -17.6842 -1.29465e-09 -4.23902e-10 -2.05741e-10 -2.22509e-09 -7.04756e-10 -2.77554e-10 -1.29465e-09 -4.239e-10 -2.05735e-10 -7.73091 5.47488 -0.417314 -1.29464e-09 -4.239e-10 -2.05739e-10 -2.90554 0.965183 -0.102902 -1.29465e-09 -4.239e-10 -2.05744e-10 -10.2786 0.731801 -0.0259123 -1.29464e-09 -4.23898e-10 -2.05758e-10 -2.22167 -0.733487 0.20892 -2.03217e-16 0.0 -3.88251e-19 3.80771 -21.1882 7.81266 -0.173891 34.9423 0.804551 -8.1101 -13.8637 -23.5952 2.03217e-16 0.0 3.88251e-19 -5.96546 -22.654 -7.34295 0.216279 32.2121 -0.546885 3.46661 -1.61053 23.8102
10.6978 79.4838 16.7436 177.649 0.825 -171.065 -4.39003 -5.07003 0.0543282 2.7471 5.08567 0.0176052 0.419665 -21.227 -1.77249 3.31341 31.8629 -1.62959 -0.0 0.0 0.0 -0.0 0.0 0.0 -7.44363e-14 -2.38547e-14 -1.75924e-14 81.6758 -10.9936 -7.37689 -9.93802 -4.10375 17.6852 -3.13731 43.904 7.7739 1.16523e-09 -5.24537e-11 -7.09321e-10 1.98269e-09 -8.24622e-11 -1.26567e-09 1.16524e-09 -5.24605e-11 -7.09321e-10 7.73091 5.47488 0.417314 1.16524e-09 -5.24612e-11 -7.09311e-10 2.90554 0.965183 0.102902 1.16523e-09 -5.24598e-11 -7.0932e-10 10.2786 0.731801 0.0259123 1.16523e-09 -5.24636e-11 -7.09311e-10 2.22167 -0.733487 -0.20892 -7.45577e-14 -2.38549e-14 -1.799e-14 -83.1514 -15.0769 -1.20251 7.05019 -2.53263 -12.3743 14.0853 68.2748 -20.6533 -1.41028e-09 -3.33987e-10 9.71214e-11 -2.4097e-09 -5.41515e-10 2.47926e-10 -1.41029e-09 -3.33984e-10 9.71278e-11 -7.73091 5.47488 -0.417314 -1.41028e-09 -3.33984e-10 9.71214e-11 -2.90554 0.965183 -0.102902 -1.41028e-09 -3.33984e-10 9.71174e-11 -10.2786 0.731801 -0.0259123 -1.41028e-09 -3.33982e-10 9.71023e-11 -2.22167 -0.733487 0.20892 -2.03217e-16 0.0 -3.88251e-19 3.80598 -21.1976 7.81244 -0.173682 34.9306 0.805005 -8.12972 -13.8892 -23.6222 2.03217e-16 0.0 3.88251e-19 -5.97151 -22.6843 -7.34994 0.216199 32.2274 -0.54818 3.47294 -1.62058 23.822
10.7159 79.4771 16.6885 177.621 0.8288 -170.995 -4.41673 -5.07472 0.0958906 2.75935 5.06838 0.0297538 0.297763 -21.2544 -1.35935 3.66221 31.793 -2.12515 -0.0 0.0 0.0 -0.0 0.0 0.0 -6.54213e-14 -3.8888e-14 -1.84912e-14 81.362 -12.5326 -7.94119 -9.7105 -3.96723 17.2598 -3.39258 45.2146 8.13891 7.42221e-10 -8.05807e-11 -3.94413e-10 1.26553e-09 -1.33295e-10 -7.06305e-10 7.42226e-10 -8.05872e-11 -3.94416e-10 7.73091 5.47488 0.417314 7.4223e-10 -8.05883e-11 -3.94406e-10 2.90554 0.965183 0.102902 7.42225e-10 -8.05864e-11 -3.94415e-10 10.2786 0.731801 0.0259123 7.42218e-10 -8.059e-11 -3.94406e-10 2.22167 -0.733487 -0.20892 -6.55604e-14 -3.8888e-14 -1.88783e-14 -83.0438 -18.8266 -0.31385 6.76875 -2.39575 -11.8685 17.8095 71.3689 -24.6196 -9.18107e-10 -2.12923e-10 2.08857e-10 -1.56367e-09 -3.37311e-10 4.08783e-10 -9.18113e-10 -2.1292e-10 2.08863e-10 -7.73091 5.47488 -0.417314 -9.18108e-10 -2.12919e-10 2.08851e-10 -2.90554 0.965183 -0.102902 -9.1811e-10 -2.12919e-10 2.0885e-10 -10.2786 0.731801 -0.0259123 -9.18104e-10 -2.12918e-10 2.08835e-10 -2.22167 -0.733487 0.20892 -2.03217e-16 0.0 -3.88251e-19 3.79145 -21.2115 7.82335 -0.173549 34.9333 0.805898 -8.15211 -13.9145 -23.6547 2.03217e-16 0.0 3.88251e-19 -5.99251 -22.7058 -7.3504 0.216375 32.2334 -0.54893 3.47741 -1.62785 23.8331
10.7331 79.4707 16.6313 177.586 0.8358 -170.935 -4.46496 -5.07517 0.139484 2.77488 5.04318 0.0428459 0.137423 -21.2964 -0.755023 4.16699 31.7295 -2.85198 -0.0 0.0 0.0 -0.0 0.0 0.0 -3.30295e-14 -5.86424e-14 -1.43032e-14 81.0109 -14.1363 -8.52528 -9.48549 -3.83476 16.8398 -3.68727 46.6129 8.54935 -6.35569e-11 -6.71491e-11 -2.39331e-11 -1.08379e-10 -1.13128e-10 -3.7035e-11 -6.35538e-11 -6.71538e-11 -2.39405e-11 7.73091 5.47488 0.417314 -6.35516e-11 -6.71554e-11 -2.39299e-11 2.90554 0.965183 0.102902 -6.35518e-11 -6.71529e-11 -2.39381e-11 10.2786 0.731801 0.0259123 -6.35612e-11 -6.71554e-11 -2.39295e-11 2.22167 -0.733487 -0.20892 -3.32053e-14 -5.86422e-14 -1.46914e-14 -82.8065 -22.6128 0.639028 6.52976 -2.28386 -11.4376 23.2256 74.4392 -30.2858 -4.87532e-11 -7.14581e-11 2.25492e-10 -7.73251e-11 -1.049e-10 3.83046e-10 -4.87563e-11 -7.14541e-11 2.25497e-10 -7.73091 5.47488 -0.417314 -4.87578e-11 -7.14532e-11 2.25478e-10 -2.90554 0.965183 -0.102902 -4.87549e-11 -7.1453e-11 2.25483e-10 -10.2786 0.731801 -0.0259123 -4.87478e-11 -7.14519e-11 2.25469e-10 -2.22167 -0.733487 0.20892 -2.03217e-16 0.0 -3.88251e-19 3.76735 -21.2303 7.8455 -0.173515 34.9483 0.807235 -8.1789 -13.9415 -23.6955 2.03217e-16 0.0 3.88251e-19 -6.02471 -22.7219 -7.34425 0.216725 32.2333 -0.549367 3.48088 -1.63443 23.8419
10.7475 79.4649 16.5724 177.535 0.8415 -170.888 -4.52421 -5.07206 0.183059 2.79109 5.01697 0.056116 -0.0145895 -21.339 -0.148612 4.66688 31.6711 -3.57498 -0.0 0.0 0.0 -0.0 0.0 0.0 3.9442e-15 -7.37254e-14 -8.52949e-15 80.6299 -15.7665 -9.11849 -9.26816 -3.70871 16.4355 -4.01519 48.048 8.99465 -8.66353e-10 -3.66723e-11 3.13188e-10 -1.47827e-09 -6.34675e-11 5.74307e-10 -8.66352e-10 -3.66746e-11 3.13176e-10 7.73091 5.47488 0.417314 -8.66352e-10 -3.66768e-11 3.13188e-10 2.90554 0.965183 0.102902 -8.66347e-10 -3.66737e-11 3.1318e-10 10.2786 0.731801 0.0259123 -8.66359e-10 -3.6675e-11 3.13189e-10 2.22167 -0.733487 -0.20892 3.731e-15 -7.37249e-14 -8.92357e-15 -82.4368 -26.3621 1.64512 6.32499 -2.19049 -11.0682 31.3066 77.3142 -38.6162 8.07173e-10 5.55731e-11 2.01224e-10 1.38484e-09 1.01266e-10 2.88298e-10 8.07172e-10 5.55775e-11 2.01228e-10 -7.73091 5.47488 -0.417314 8.07164e-10 5.55791e-11 2.01202e-10 -2.90554 0.965183 -0.102902 8.07172e-10 5.5579e-11 2.01213e-10 -10.2786 0.731801 -0.0259123 8.0718e-10 5.55797e-11 2.01199e-10 -2.22167 -0.733487 0.20892 -2.03217e-16 0.0 -3.88251e-19 3.73927 -21.2473 7.87049 -0.17347 34.9669 0.808733 -8.20805 -13.9706 -23.7396 2.03217e-16 0.0 3.88251e-19 -6.06124 -22.7324 -7.33546 0.217107 32.2311 -0.549579 3.48534 -1.64266 23.8531
10.7626 79.4598 16.51 177.477 0.8437 -170.854 -4.58394 -5.06607 0.224567 2.80535 4.99661 0.0687991 -0.11257 -21.3705 0.270391 5.00206 31.621 -4.05969 -0.0 0.0 0.0 -0.0 0.0 0.0 2.6705e-14 -7.47442e-14 -4.67144e-15 80.2292 -17.3852 -9.70893 -9.06379 -3.59153 16.0572 -4.36634 49.4696 9.46097 -1.28042e-09 -1.36637e-11 5.2802e-10 -2.18336e-09 -2.58229e-11 9.59883e-10 -1.28042e-09 -1.36641e-11 5.28004e-10 7.73091 5.47488 0.417314 -1.28042e-09 -1.36666e-11 5.28017e-10 2.90554 0.965183 0.102902 -1.28041e-09 -1.36636e-11 5.2801e-10 10.2786 0.731801 0.0259123 -1.28042e-09 -1.36641e-11 5.2802e-10 2.22167 -0.733487 -0.20892 2.64716e-14 -7.47436e-14 -5.06901e-15 -81.9423 -30.0015 2.6901 6.14581 -2.10905 -10.7468 43.4701 79.7522 -51.0203 1.25906e-09 1.33335e-10 1.90248e-10 2.15834e-09 2.26739e-10 2.42124e-10 1.25906e-09 1.3334e-10 1.90251e-10 -7.73091 5.47488 -0.417314 1.25905e-09 1.33342e-10 1.90223e-10 -2.90554 0.965183 -0.102902 1.25906e-09 1.33341e-10 1.90236e-10 -10.2786 0.731801 -0.0259123 1.25907e-09 1.33342e-10 1.90223e-10 -2.22167 -0.733487 0.20892 -2.03217e-16 0.0 -3.88251e-19 3.71281 -21.2556 7.88988 -0.173303 34.9805 0.810107 -8.23746 -14.002 -23.7821 2.03217e-16 0.0 3.88251e-19 -6.09524 -22.7369 -7.32798 0.217375 32.2308 -0.549652 3.4928 -1.65484 23.8713
10.7799 79.4546 16.4479 177.419 0.8529 -170.822 -4.6502 -5.05492 0.265664 2.81831 4.98317 0.0814134 -0.129555 -21.3885 0.425909 5.09767 31.5838 -4.2031 -0.0 0.0 0.0 -0.0 0.0 0.0 2.98549e-14 -5.73008e-14 -4.25601e-15 79.81 -19.0143 -10.2984 -8.87279 -3.48369 15.7045 -4.74493 50.8903 9.95416 -1.14609e-09 -7.42509e-12 5.89854e-10 -1.94938e-09 -1.52772e-11 1.06088e-09 -1.14609e-09 -7.4239e-12 5.89837e-10 7.73091 5.47488 0.417314 -1.14609e-09 -7.42708e-12 5.89851e-10 2.90554 0.965183 0.102902 -1.14608e-09 -7.42468e-12 5.89846e-10 10.2786 0.731801 0.0259123 -1.14609e-09 -7.42506e-12 5.89858e-10 2.22167 -0.733487 -0.20892 2.96218e-14 -5.73003e-14 -4.65358e-15 -81.321 -33.5635 3.79021 5.99549 -2.0409 -10.4785 61.6532 81.4664 -69.4419 1.12475e-09 1.30971e-10 2.29699e-10 1.93485e-09 2.20934e-10 3.1855e-10 1.12475e-09 1.30975e-10 2.29701e-10 -7.73091 5.47488 -0.417314 1.12474e-09 1.30978e-10 2.29676e-10 -2.90554 0.965183 -0.102902 1.12475e-09 1.30977e-10 2.29688e-10 -10.2786 0.731801 -0.0259123 1.12476e-09 1.30978e-10 2.29675e-10 -2.22167 -0.733487 0.20892 -2.03217e-16 0.0 -3.88251e-19 3.68543 -21.2539 7.90316 -0.172928 34.9885 0.811357 -8.26768 -14.0362 -23.8237 2.03217e-16 0.0 3.88251e-19 -6.12807 -22.7333 -7.31817 0.217463 32.2308 -0.54937 3.50388 -1.67242 23.8961
10.7993 79.449 16.3852 177.366 0.8658 -170.79 -4.72568 -5.03908 0.306708 2.83091 4.97324 0.0941263 -0.0953538 -21.4002 0.427332 5.05082 31.5585 -4.14439 -0.0 0.0 0.0 -0.0 0.0 0.0 2.35464e-14 -2.70356e-14 -5.2181e-15 79.366 -20.6627 -10.8949 -8.6932 -3.38419 15.3728 -5.16124 52.3277 10.4858 -6.88028e-10 -3.961e-12 5.48451e-10 -1.16143e-09 -8.35453e-12 9.7149e-10 -6.88026e-10 -3.9583e-12 5.48436e-10 7.73091 5.47488 0.417314 -6.88029e-10 -3.96216e-12 5.48451e-10 2.90554 0.965183 0.102902 -6.88024e-10 -3.96096e-12 5.48448e-10 10.2786 0.731801 0.0259123 -6.88034e-10 -3.96153e-12 5.48463e-10 2.22167 -0.733487 -0.20892 2.33249e-14 -2.70355e-14 -5.61567e-15 -80.5531 -37.0642 4.97673 5.87763 -1.98875 -10.2677 85.2691 81.994 -93.2997 6.38562e-10 7.42494e-11 2.83111e-10 1.11249e-09 1.24914e-10 4.40641e-10 6.38558e-10 7.42521e-11 2.83111e-10 -7.73091 5.47488 -0.417314 6.38559e-10 7.42551e-11 2.83094e-10 -2.90554 0.965183 -0.102902 6.38559e-10 7.4253e-11 2.83103e-10 -10.2786 0.731801 -0.0259123 6.3857e-10 7.42552e-11 2.83089e-10 -2.22167 -0.733487 0.20892 -2.03217e-16 0.0 -3.88251e-19 3.65548 -21.2457 7.91423 -0.172424 34.9951 0.812609 -8.29947 -14.073 -23.8664 2.03217e-16 0.0 3.88251e-19 -6.16235 -22.7225 -7.30549 0.217458 32.23 -0.548765 3.5175 -1.6939 23.9256
